<svg width="32" height="32" viewBox="0 0 32 32" fill="none" xmlns="http://www.w3.org/2000/svg">
<path fill-rule="evenodd" clip-rule="evenodd" d="M25.6 16.2273C25.6 15.5182 25.5363 14.8364 25.4182 14.1819H16V18.0501H21.3818C21.15 19.3001 20.4454 20.3592 19.3863 21.0683V23.5774H22.6182C24.5091 21.8364 25.6 19.2728 25.6 16.2273Z" fill="#4285F4"/>
<path fill-rule="evenodd" clip-rule="evenodd" d="M16 25.9999C18.7 25.9999 20.9636 25.1045 22.6182 23.5772L19.3863 21.0681C18.4909 21.6681 17.3454 22.0226 16 22.0226C13.3954 22.0226 11.1909 20.2635 10.4045 17.8999H7.0636V20.4908C8.70906 23.759 12.0909 25.9999 16 25.9999Z" fill="#34A853"/>
<path fill-rule="evenodd" clip-rule="evenodd" d="M10.4045 17.9002C10.2045 17.3002 10.0909 16.6593 10.0909 16.0002C10.0909 15.3411 10.2045 14.7002 10.4045 14.1002V11.5093H7.06361C6.38633 12.8593 5.99997 14.3866 5.99997 16.0002C5.99997 17.6138 6.38633 19.1411 7.06361 20.4911L10.4045 17.9002Z" fill="#FBBC05"/>
<path fill-rule="evenodd" clip-rule="evenodd" d="M16 9.97728C17.4682 9.97728 18.7863 10.4818 19.8227 11.4727L22.6909 8.60455C20.9591 6.99091 18.6954 6 16 6C12.0909 6 8.70906 8.24091 7.0636 11.5091L10.4045 14.1C11.1909 11.7364 13.3954 9.97728 16 9.97728Z" fill="#EA4335"/>
</svg>
