<svg width="64" height="63" viewBox="0 0 64 63" fill="none" xmlns="http://www.w3.org/2000/svg">
<path d="M49.17 23.5627C37.686 19.3725 24.9986 19.5423 13.6122 24.0723L11.7598 24.7718C7.52182 26.3719 5.06776 30.7414 5.9449 35.1253L6.76632 39.2307C7.03339 40.5655 8.29216 41.4783 9.66635 41.3336L19.9272 40.2532C21.4343 40.0945 22.5042 38.7328 22.2812 37.257L21.6674 33.1939C28.3993 30.9452 35.7195 30.9452 42.4515 33.1939L41.8376 37.2569C41.6147 38.7327 42.6846 40.0945 44.1917 40.2532L54.4529 41.3336C55.8268 41.4783 57.0854 40.5659 57.3527 39.2314L58.1808 35.0986C59.0645 30.6883 56.5765 26.2962 52.3005 24.7181L49.1747 23.5644L49.17 23.5627Z" fill="#FF3F4C"/>
</svg>
