<svg 
    width="48" 
    height="48" 
    viewBox="0 0 48 48" 
    fill="none" 
    xmlns="http://www.w3.org/2000/svg">
<path 
    d="M27.592 8.27224C25.6272 6.243 22.3727 6.243 20.4079 8.27222L10.8109 18.1837C10.2597 18.7529 9.88937 19.4725 9.74646 20.2519C8.58094 26.6078 8.49491 33.1147 9.49198 39.4993L9.84498 41.7597C9.95648 42.4736 10.5714 43 11.294 43H17.9999C18.5522 43 18.9999 42.5523 18.9999 42V28H28.9999V42C28.9999 42.5523 29.4477 43 29.9999 43H36.7058C37.4284 43 38.0433 42.4736 38.1548 41.7597L38.5078 39.4993C39.5049 33.1148 39.4188 26.6078 38.2533 20.2519C38.1104 19.4725 37.74 18.7529 37.1889 18.1837L27.592 8.27224Z" 
    fill="#70A4F9"/>
</svg>
