<svg 
    width="48" 
    height="48" 
    viewBox="0 0 48 48" 
    fill="none" 
    xmlns="http://www.w3.org/2000/svg">
<path 
    d="M24 7.5C19.8579 7.5 16.5 10.8579 16.5 15C16.5 19.1421 19.8579 22.5 24 22.5C28.1421 22.5 31.5 19.1421 31.5 15C31.5 10.8579 28.1421 7.5 24 7.5Z" 
    fill="#70A4F9"/>
<path 
    d="M16 26.5C11.8579 26.5 8.5 29.8579 8.5 34V36.3766C8.5 37.883 9.59177 39.1675 11.0785 39.4102C19.6362 40.8074 28.3638 40.8074 36.9215 39.4102C38.4082 39.1675 39.5 37.883 39.5 36.3766V34C39.5 29.8579 36.1421 26.5 32 26.5H31.3183C30.9493 26.5 30.5826 26.5583 30.2319 26.6729L28.5008 27.2381C25.5763 28.1931 22.4237 28.1931 19.4992 27.2381L17.7681 26.6729C17.4174 26.5583 17.0507 26.5 16.6817 26.5H16Z" 
    fill="#70A4F9"/>
</svg>
