<svg
    width="32"
    height="48"
    viewBox="0 0 32 35"
    fill="none"
    xmlns="http://www.w3.org/2000/svg"
>
    <path
        fill-rule="evenodd"
        clip-rule="evenodd"
        d="M7.5 9C7.5 4.30558 11.3056 0.5 16 0.5C20.6944 0.5 24.5 4.30558 24.5 9C24.5 13.6944 20.6944 17.5 16 17.5C11.3056 17.5 7.5 13.6944 7.5 9ZM16 3.5C12.9624 3.5 10.5 5.96243 10.5 9C10.5 12.0376 12.9624 14.5 16 14.5C19.0376 14.5 21.5 12.0376 21.5 9C21.5 5.96243 19.0376 3.5 16 3.5Z"
        fill="#FDFFFF"
        fill-opacity="0.7"
    />
    <path
        fill-rule="evenodd"
        clip-rule="evenodd"
        d="M8 23.5C5.51472 23.5 3.5 25.5147 3.5 28V30.3766C3.5 30.4128 3.52623 30.4436 3.56194 30.4494C11.7994 31.7943 20.2006 31.7943 28.4381 30.4494C28.4738 30.4436 28.5 30.4128 28.5 30.3766V28C28.5 25.5147 26.4853 23.5 24 23.5H23.3183C23.2656 23.5 23.2132 23.5083 23.1631 23.5247L21.432 24.0899C17.9024 25.2425 14.0976 25.2425 10.568 24.0899L8.83694 23.5247C8.78683 23.5083 8.73445 23.5 8.68174 23.5H8ZM0.5 28C0.5 23.8579 3.85786 20.5 8 20.5H8.68174C9.05072 20.5 9.41739 20.5583 9.76814 20.6729L11.4992 21.2381C14.4237 22.1931 17.5763 22.1931 20.5008 21.2381L22.2319 20.6729C22.5826 20.5583 22.9493 20.5 23.3183 20.5H24C28.1421 20.5 31.5 23.8579 31.5 28V30.3766C31.5 31.883 30.4082 33.1675 28.9215 33.4102C20.3638 34.8074 11.6362 34.8074 3.07854 33.4102C1.59177 33.1675 0.5 31.883 0.5 30.3766V28Z"
        fill="#FDFFFF"
        fill-opacity="0.7"
    />
</svg>