<svg
    width="35"
    height="30"
    viewBox="0 0 35 30"
    fill="none"
    xmlns="http://www.w3.org/2000/svg"
>
    <path
        d="M10 11C8.61929 11 7.5 12.1193 7.5 13.5C7.5 14.8807 8.61929 16 10 16C11.3807 16 12.5 14.8807 12.5 13.5C12.5 12.1193 11.3807 11 10 11Z"
        fill="#FDFFFF"
        fill-opacity="0.7"
    />
    <path
        d="M18 11C16.6193 11 15.5 12.1193 15.5 13.5C15.5 14.8807 16.6193 16 18 16C19.3807 16 20.5 14.8807 20.5 13.5C20.5 12.1193 19.3807 11 18 11Z"
        fill="#FDFFFF"
        fill-opacity="0.7"
    />
    <path
        d="M23.5 13.5C23.5 12.1193 24.6193 11 26 11C27.3807 11 28.5 12.1193 28.5 13.5C28.5 14.8807 27.3807 16 26 16C24.6193 16 23.5 14.8807 23.5 13.5Z"
        fill="#FDFFFF"
        fill-opacity="0.7"
    />
    <path
        fill-rule="evenodd"
        clip-rule="evenodd"
        d="M26.2015 1.1856C20.8131 0.726078 15.3965 0.69941 10.0039 1.10585L9.61742 1.13498C4.47481 1.52257 0.5 5.80824 0.5 10.9654V28C0.5 28.5278 0.777332 29.0167 1.2303 29.2875C1.68326 29.5583 2.24521 29.5711 2.71008 29.3213L10.5317 25.1179C10.8955 24.9224 11.3021 24.82 11.7151 24.82H29.6679C31.9321 24.82 33.8725 23.2012 34.2784 20.9737C35.1009 16.4593 35.1659 11.8393 34.4706 7.30351L34.2657 5.96686C33.8927 3.53336 31.9019 1.67173 29.4489 1.46254L26.2015 1.1856ZM10.2294 4.09737C15.4621 3.70298 20.718 3.72886 25.9465 4.17475L29.194 4.45169C30.2667 4.54317 31.1373 5.35725 31.3004 6.4214L31.5053 7.75805C32.1501 11.9646 32.0898 16.2492 31.3269 20.436C31.1809 21.2375 30.4827 21.82 29.6679 21.82H11.7151C10.8064 21.82 9.91192 22.0452 9.11151 22.4753L3.5 25.491V10.9654C3.5 7.37763 6.26523 4.39614 9.84289 4.12649L10.2294 4.09737Z"
        fill="#FDFFFF"
        fill-opacity="0.7"
    />
</svg>