<svg 
    width="48" 
    height="48" 
    viewBox="0 0 48 48" 
    fill="none" 
    xmlns="http://www.w3.org/2000/svg">
<path 
    fill-rule="evenodd" 
    clip-rule="evenodd" 
    d="M16.0039 9.10579C21.3965 8.69935 26.8131 8.72602 32.2015 9.18554L35.4489 9.46248C37.9019 9.67167 39.8927 11.5333 40.2657 13.9668L40.4706 15.3035C41.1659 19.8393 41.1009 24.4592 40.2784 28.9737C39.8725 31.2012 37.9321 32.82 35.6679 32.82H17.7151C17.3021 32.82 16.8955 32.9223 16.5317 33.1178L8.71008 37.3212C8.24521 37.5711 7.68326 37.5582 7.2303 37.2874C6.77733 37.0166 6.5 36.5277 6.5 36V18.9654C6.5 13.8082 10.4748 9.52251 15.6174 9.13492L16.0039 9.10579ZM16 19C14.6193 19 13.5 20.1193 13.5 21.5C13.5 22.8807 14.6193 24 16 24C17.3807 24 18.5 22.8807 18.5 21.5C18.5 20.1193 17.3807 19 16 19ZM24 19C22.6193 19 21.5 20.1193 21.5 21.5C21.5 22.8807 22.6193 24 24 24C25.3807 24 26.5 22.8807 26.5 21.5C26.5 20.1193 25.3807 19 24 19ZM29.5 21.5C29.5 20.1193 30.6193 19 32 19C33.3807 19 34.5 20.1193 34.5 21.5C34.5 22.8807 33.3807 24 32 24C30.6193 24 29.5 22.8807 29.5 21.5Z" 
    fill="#70A4F9"/>
</svg>
