<svg width="48" height="48" viewBox="0 0 48 48" fill="none" xmlns="http://www.w3.org/2000/svg">
<path d="M28.3319 6.37724C25.4736 5.79157 22.5263 5.79157 19.668 6.37724C18.7803 6.55912 18.0968 7.26964 17.9495 8.16367L17.841 8.82166C16.9485 14.2374 16.9485 19.7626 17.841 25.1783L17.9495 25.8363C18.0968 26.7304 18.7803 27.4409 19.668 27.6228C22.5263 28.2084 25.4736 28.2084 28.3319 27.6228C29.2196 27.4409 29.9031 26.7304 30.0504 25.8363L30.1588 25.1783C31.0514 19.7626 31.0514 14.2374 30.1588 8.82166L30.0504 8.16367C29.9031 7.26964 29.2196 6.55912 28.3319 6.37724Z" fill="#FDFFFF"/>
<path d="M9.7895 20.5148C10.6097 20.3986 11.3689 20.9693 11.4851 21.7896L12.3861 28.1482C12.6296 29.8661 13.9914 31.2094 15.7126 31.4293C21.2151 32.1321 26.7848 32.1321 32.2873 31.4293C34.0085 31.2094 35.3703 29.8661 35.6138 28.1482L36.5148 21.7896C36.631 20.9693 37.3902 20.3986 38.2104 20.5148C39.0306 20.6311 39.6013 21.3902 39.4851 22.2105L38.5841 28.5691C38.1511 31.6248 35.7288 34.014 32.6674 34.4051C30.287 34.7091 27.8945 34.8874 25.5 34.94V43C25.5 43.8284 24.8284 44.5 24 44.5C23.1716 44.5 22.5 43.8284 22.5 43V34.94C20.1054 34.8874 17.7129 34.7091 15.3325 34.4051C12.2711 34.014 9.8488 31.6248 9.4158 28.569L8.51478 22.2105C8.39855 21.3902 8.96926 20.6311 9.7895 20.5148Z" fill="#FDFFFF"/>
</svg>
