<svg width="48" height="48" viewBox="0 0 48 48" fill="none" xmlns="http://www.w3.org/2000/svg">
<path d="M30.1588 8.82166C30.3855 10.1971 30.5546 11.5796 30.6662 12.9656C30.6779 13.1109 30.6248 13.2539 30.5217 13.357L18.4918 25.3868C18.2658 25.6128 17.893 25.4937 17.841 25.1783C16.9485 19.7626 16.9485 14.2374 17.841 8.82166L17.9495 8.16367C18.0968 7.26964 18.7803 6.55912 19.668 6.37724C22.5263 5.79157 25.4736 5.79157 28.3319 6.37724C29.2196 6.55912 29.9031 7.26964 30.0504 8.16367L30.1588 8.82166Z" fill="#FF3F4C"/>
<path d="M12.3861 28.1482C12.484 28.8392 12.7629 29.4696 13.1733 29.9906C13.3457 30.2095 13.3507 30.5279 13.1537 30.725L11.7414 32.1372C11.5472 32.3315 11.231 32.3338 11.0498 32.1273C10.192 31.1501 9.60797 29.9252 9.4158 28.569L8.51478 22.2105C8.39855 21.3902 8.96926 20.6311 9.7895 20.5148C10.6097 20.3986 11.3689 20.9693 11.4851 21.7896L12.3861 28.1482Z" fill="#FF3F4C"/>
<path d="M17.1125 34.6088L10.0607 41.6606C9.47487 42.2464 8.52513 42.2464 7.93934 41.6606C7.35355 41.0749 7.35355 40.1251 7.93934 39.5393L39.9393 7.53932C40.5251 6.95353 41.4749 6.95353 42.0607 7.53932C42.6464 8.1251 42.6464 9.07485 42.0607 9.66064L30.6644 21.0569C30.5528 22.4354 30.3843 23.8104 30.1588 25.1783L30.0504 25.8363C29.9031 26.7304 29.2196 27.4409 28.3319 27.6228C26.7918 27.9383 25.2259 28.0839 23.6619 28.0594L19.8939 31.8274C24.0252 32.0872 28.175 31.9545 32.2873 31.4293C34.0085 31.2094 35.3703 29.8661 35.6138 28.1482L36.5148 21.7896C36.631 20.9693 37.3902 20.3986 38.2104 20.5148C39.0306 20.6311 39.6013 21.3902 39.4851 22.2105L38.5841 28.5691C38.1511 31.6248 35.7288 34.014 32.6674 34.4051C30.287 34.7091 27.8945 34.8874 25.5 34.94V43C25.5 43.8284 24.8284 44.5 24 44.5C23.1716 44.5 22.5 43.8284 22.5 43V34.94C20.7016 34.9005 18.9044 34.7901 17.1125 34.6088Z" fill="#FF3F4C"/>
</svg>
