<svg width="48" height="48" viewBox="0 0 48 48" fill="none" xmlns="http://www.w3.org/2000/svg">
<g clip-path="url(#clip0_260_80)">
<path d="M41.9999 14C41.9999 11.24 39.7599 9 36.9999 9C36.6599 9 36.3199 9.04 35.9999 9.1V8C35.9999 5.24 33.7599 3 30.9999 3C30.5399 3 30.0799 3.06 29.6599 3.18C28.9199 1.32 27.1199 0 24.9999 0C22.5399 0 20.4999 1.78 20.0799 4.12C19.7399 4.04 19.3799 4 18.9999 4C16.2399 4 13.9999 6.24 13.9999 9V20.78C13.3199 20.16 12.4799 19.7 11.5599 19.46L10.0199 19.04C8.35995 18.58 6.61995 19.22 5.63995 20.7C4.87995 21.84 4.83995 23.32 5.33995 24.6L10.4599 37.46C12.9799 43.82 19.1399 48 25.9999 48C34.8399 48 41.9999 40.84 41.9999 32V14ZM37.9999 32C37.9999 38.62 32.6199 44 25.9999 44C20.7799 44 16.0999 40.82 14.1799 35.98L8.97995 22.9L10.0399 23.18C10.9599 23.42 11.6999 24.1 12.0399 24.98L13.9999 30H17.9999V9C17.9999 8.44 18.4399 8 18.9999 8C19.5599 8 19.9999 8.44 19.9999 9V24H23.9999V5C23.9999 4.44 24.4399 4 24.9999 4C25.5599 4 25.9999 4.44 25.9999 5V24H29.9999V8C29.9999 7.44 30.4399 7 30.9999 7C31.5599 7 31.9999 7.44 31.9999 8V24H35.9999V14C35.9999 13.44 36.4399 13 36.9999 13C37.5599 13 37.9999 13.44 37.9999 14V32Z" fill="#70A4F9"/>
</g>
<defs>
<clipPath id="clip0_260_80">
<rect width="48" height="48" fill="white"/>
</clipPath>
</defs>
</svg>
