<svg width="56" height="87" viewBox="0 0 56 87" fill="none" xmlns="http://www.w3.org/2000/svg" xmlns:xlink="http://www.w3.org/1999/xlink">
<rect width="56" height="56" rx="9" fill="url(#pattern0)"/>
<path d="M19.8011 70.3636C19.7415 69.8598 19.4995 69.4688 19.0753 69.1903C18.651 68.9119 18.1307 68.7727 17.5142 68.7727C17.0634 68.7727 16.669 68.8456 16.331 68.9915C15.9962 69.1373 15.7344 69.3378 15.5455 69.593C15.3598 69.8482 15.267 70.1383 15.267 70.4631C15.267 70.7348 15.3317 70.9685 15.4609 71.1641C15.5935 71.3563 15.7625 71.517 15.968 71.6463C16.1735 71.7723 16.389 71.8767 16.6143 71.9595C16.8397 72.0391 17.0469 72.1037 17.2358 72.1534L18.2699 72.4318C18.535 72.5014 18.83 72.5975 19.1548 72.7202C19.483 72.8428 19.7962 73.0102 20.0945 73.2223C20.3961 73.4311 20.6446 73.6996 20.8402 74.0277C21.0357 74.3558 21.1335 74.7585 21.1335 75.2358C21.1335 75.786 20.9893 76.2831 20.701 76.7273C20.416 77.1714 19.9983 77.5244 19.4482 77.7862C18.9013 78.0481 18.2367 78.179 17.4545 78.179C16.7254 78.179 16.094 78.0613 15.5604 77.826C15.0301 77.5907 14.6125 77.2625 14.3075 76.8416C14.0059 76.4207 13.8352 75.9318 13.7955 75.375H15.0682C15.1013 75.7595 15.2306 76.0777 15.456 76.3295C15.6847 76.5781 15.973 76.7637 16.321 76.8864C16.6723 77.0057 17.0502 77.0653 17.4545 77.0653C17.9252 77.0653 18.3478 76.9891 18.7223 76.8366C19.0968 76.6809 19.3935 76.4654 19.6122 76.1903C19.831 75.9119 19.9403 75.5871 19.9403 75.2159C19.9403 74.8778 19.8459 74.6027 19.657 74.3906C19.468 74.1785 19.2195 74.0062 18.9112 73.8736C18.603 73.741 18.2699 73.625 17.9119 73.5256L16.6591 73.1676C15.8636 72.9389 15.2339 72.6125 14.7699 72.1882C14.3059 71.764 14.0739 71.2088 14.0739 70.5227C14.0739 69.9527 14.228 69.4555 14.5362 69.0312C14.8478 68.6037 15.2654 68.2723 15.7891 68.0369C16.3161 67.7983 16.9044 67.679 17.554 67.679C18.2102 67.679 18.7936 67.7966 19.304 68.032C19.8144 68.264 20.2188 68.5821 20.517 68.9865C20.8187 69.3909 20.9777 69.8499 20.9943 70.3636H19.8011ZM25.2488 78.179C24.7649 78.179 24.3257 78.0878 23.9313 77.9055C23.5369 77.7199 23.2237 77.4531 22.9917 77.1051C22.7596 76.7538 22.6436 76.3295 22.6436 75.8324C22.6436 75.3949 22.7298 75.0402 22.9022 74.7685C23.0745 74.4934 23.3049 74.2779 23.5932 74.1222C23.8816 73.9664 24.1998 73.8504 24.5478 73.7741C24.8991 73.6946 25.2521 73.6316 25.6067 73.5852C26.0707 73.5256 26.4469 73.4808 26.7353 73.451C27.0269 73.4179 27.2391 73.3632 27.3716 73.2869C27.5075 73.2107 27.5755 73.0781 27.5755 72.8892V72.8494C27.5755 72.3589 27.4412 71.9777 27.1728 71.706C26.9076 71.4342 26.5049 71.2983 25.9647 71.2983C25.4045 71.2983 24.9654 71.4209 24.6472 71.6662C24.329 71.9115 24.1053 72.1733 23.976 72.4517L22.8624 72.054C23.0613 71.59 23.3264 71.2287 23.6578 70.9702C23.9926 70.7083 24.3572 70.526 24.7516 70.4233C25.1493 70.3172 25.5404 70.2642 25.9249 70.2642C26.1702 70.2642 26.4519 70.294 26.7701 70.3537C27.0916 70.41 27.4015 70.5277 27.6998 70.7067C28.0014 70.8857 28.2516 71.1558 28.4505 71.517C28.6493 71.8783 28.7488 72.3622 28.7488 72.9688V78H27.5755V76.9659H27.5158C27.4363 77.1316 27.3037 77.3089 27.1181 77.4979C26.9325 77.6868 26.6855 77.8475 26.3773 77.9801C26.0691 78.1127 25.6929 78.179 25.2488 78.179ZM25.4277 77.125C25.8917 77.125 26.2828 77.0339 26.601 76.8516C26.9225 76.6693 27.1645 76.4339 27.3269 76.1456C27.4926 75.8572 27.5755 75.554 27.5755 75.2358V74.1619C27.5257 74.2216 27.4164 74.2763 27.2473 74.326C27.0816 74.3724 26.8894 74.4138 26.6706 74.4503C26.4552 74.4834 26.2447 74.5133 26.0392 74.5398C25.8371 74.563 25.673 74.5829 25.5471 74.5994C25.2421 74.6392 24.9571 74.7038 24.6919 74.7933C24.4301 74.8795 24.218 75.0104 24.0556 75.1861C23.8965 75.3584 23.8169 75.5937 23.8169 75.892C23.8169 76.2997 23.9677 76.608 24.2694 76.8168C24.5743 77.0223 24.9604 77.125 25.4277 77.125ZM30.8903 78V70.3636H32.0238V71.517H32.1033C32.2425 71.1392 32.4944 70.8326 32.859 70.5973C33.2236 70.362 33.6346 70.2443 34.092 70.2443C34.1781 70.2443 34.2859 70.246 34.4151 70.2493C34.5444 70.2526 34.6422 70.2576 34.7085 70.2642V71.4574C34.6687 71.4474 34.5775 71.4325 34.435 71.4126C34.2958 71.3894 34.1483 71.3778 33.9925 71.3778C33.6213 71.3778 33.2899 71.4557 32.9982 71.6115C32.7099 71.764 32.4812 71.9761 32.3121 72.2479C32.1464 72.5163 32.0636 72.8229 32.0636 73.1676V78H30.8903ZM38.3464 78.179C37.8625 78.179 37.4234 78.0878 37.0289 77.9055C36.6345 77.7199 36.3213 77.4531 36.0893 77.1051C35.8573 76.7538 35.7413 76.3295 35.7413 75.8324C35.7413 75.3949 35.8275 75.0402 35.9998 74.7685C36.1722 74.4934 36.4025 74.2779 36.6909 74.1222C36.9792 73.9664 37.2974 73.8504 37.6454 73.7741C37.9967 73.6946 38.3497 73.6316 38.7044 73.5852C39.1684 73.5256 39.5446 73.4808 39.8329 73.451C40.1246 73.4179 40.3367 73.3632 40.4693 73.2869C40.6052 73.2107 40.6731 73.0781 40.6731 72.8892V72.8494C40.6731 72.3589 40.5389 71.9777 40.2704 71.706C40.0053 71.4342 39.6026 71.2983 39.0623 71.2983C38.5022 71.2983 38.063 71.4209 37.7449 71.6662C37.4267 71.9115 37.2029 72.1733 37.0737 72.4517L35.96 72.054C36.1589 71.59 36.4241 71.2287 36.7555 70.9702C37.0903 70.7083 37.4548 70.526 37.8493 70.4233C38.247 70.3172 38.6381 70.2642 39.0225 70.2642C39.2678 70.2642 39.5495 70.294 39.8677 70.3537C40.1892 70.41 40.4991 70.5277 40.7974 70.7067C41.099 70.8857 41.3493 71.1558 41.5481 71.517C41.747 71.8783 41.8464 72.3622 41.8464 72.9688V78H40.6731V76.9659H40.6135C40.5339 77.1316 40.4013 77.3089 40.2157 77.4979C40.0301 77.6868 39.7832 77.8475 39.475 77.9801C39.1667 78.1127 38.7905 78.179 38.3464 78.179ZM38.5254 77.125C38.9894 77.125 39.3805 77.0339 39.6987 76.8516C40.0202 76.6693 40.2621 76.4339 40.4245 76.1456C40.5903 75.8572 40.6731 75.554 40.6731 75.2358V74.1619C40.6234 74.2216 40.514 74.2763 40.345 74.326C40.1793 74.3724 39.987 74.4138 39.7683 74.4503C39.5529 74.4834 39.3424 74.5133 39.1369 74.5398C38.9347 74.563 38.7707 74.5829 38.6447 74.5994C38.3398 74.6392 38.0547 74.7038 37.7896 74.7933C37.5278 74.8795 37.3156 75.0104 37.1532 75.1861C36.9941 75.3584 36.9146 75.5937 36.9146 75.892C36.9146 76.2997 37.0654 76.608 37.367 76.8168C37.6719 77.0223 38.0581 77.125 38.5254 77.125Z" fill="#FDFFFF"/>
<rect x="40" y="42" width="12" height="12" rx="2" fill="#FF3F4C" fill-opacity="0.75"/>
<path d="M44.8668 43.3494C45.6145 43.1962 46.3855 43.1962 47.1332 43.3494C47.4566 43.4157 47.7056 43.6745 47.7593 44.0003L47.7864 44.1648C47.8326 44.4451 47.8694 44.7266 47.8969 45.0088C47.9005 45.0458 47.8872 45.0825 47.8609 45.1088L47.3996 45.5701C47.3225 45.6472 47.1898 45.5956 47.1829 45.4868C47.1575 45.0853 47.112 44.6848 47.0464 44.2867L47.0193 44.1222C47.0161 44.1032 47.0015 44.088 46.9826 44.0841C46.3343 43.9513 45.6657 43.9513 45.0174 44.0841C44.9984 44.088 44.9839 44.1032 44.9807 44.1222L44.9536 44.2867C44.7521 45.5093 44.7401 46.7551 44.9176 47.9805C44.9233 48.0198 44.9102 48.0594 44.8822 48.0875L44.4232 48.5465C44.3605 48.6092 44.2551 48.5871 44.2407 48.4997L44.2136 48.3352C43.986 46.9544 43.986 45.5456 44.2136 44.1648L44.2407 44.0003C44.2944 43.6745 44.5434 43.4157 44.8668 43.3494Z" fill="#FDFFFF" fill-opacity="0.9"/>
<path fill-rule="evenodd" clip-rule="evenodd" d="M47.9354 46.9949L50.5152 44.4152C50.6616 44.2687 50.6616 44.0313 50.5152 43.8848C50.3687 43.7384 50.1313 43.7384 49.9848 43.8848L41.9848 51.8848C41.8384 52.0313 41.8384 52.2687 41.9848 52.4152C42.1313 52.5616 42.3687 52.5616 42.5152 52.4152L43.8295 51.1008C43.8307 51.101 43.8319 51.1011 43.8331 51.1013C44.4282 51.1773 45.0264 51.2219 45.625 51.235V53.25C45.625 53.4571 45.7929 53.625 46 53.625C46.2071 53.625 46.375 53.4571 46.375 53.25V51.235C46.9736 51.2219 47.5717 51.1773 48.1669 51.1013C48.9322 51.0035 49.5378 50.4062 49.646 49.6423L49.8713 48.0526C49.9003 47.8476 49.7577 47.6578 49.5526 47.6287C49.3475 47.5997 49.1578 47.7423 49.1287 47.9474L48.9034 49.537C48.8426 49.9665 48.5021 50.3024 48.0718 50.3573C46.8896 50.5083 45.695 50.5296 44.5093 50.421L45.6742 49.2561C46.1619 49.2843 46.6524 49.2491 47.1332 49.1506C47.4566 49.0843 47.7056 48.8255 47.7593 48.4997L47.7864 48.3352C47.8596 47.8907 47.9093 47.4433 47.9354 46.9949ZM47.1037 47.8267L46.4341 48.4962C46.6179 48.4798 46.8011 48.4531 46.9826 48.4159C47.0015 48.412 47.0161 48.3968 47.0193 48.3778L47.0464 48.2133C47.0676 48.0846 47.0867 47.9557 47.1037 47.8267Z" fill="#FDFFFF" fill-opacity="0.9"/>
<path d="M43.0965 49.537C43.1054 49.5994 43.1201 49.6597 43.1401 49.7175C43.1571 49.7666 43.1477 49.822 43.1109 49.8587L42.7299 50.2398C42.674 50.2957 42.5807 50.2864 42.5431 50.2169C42.4484 50.0418 42.3831 49.8481 42.3539 49.6423L42.1287 48.0526C42.0996 47.8476 42.2423 47.6578 42.4474 47.6287C42.6524 47.5997 42.8422 47.7423 42.8713 47.9474L43.0965 49.537Z" fill="#FDFFFF" fill-opacity="0.9"/>
<defs>
<pattern id="pattern0" patternContentUnits="objectBoundingBox" width="1" height="1">
<use xlink:href="#image0_87_31" transform="translate(-0.00758621) scale(0.00137931)"/>
</pattern>
<image id="image0_87_31" width="736" height="725" href="https://t3.ftcdn.net/jpg/02/33/46/24/360_F_233462402_Fx1yke4ng4GA8TJikJZoiATrkncvW6Ib.jpg"/>
</defs>
</svg>
