<svg width="48" height="48" viewBox="0 0 48 48" fill="none" xmlns="http://www.w3.org/2000/svg">
<path d="M40.0565 28.1876C39.892 28.3328 39.7926 28.5382 39.7821 28.7574C39.6849 30.7826 39.5184 32.8053 39.2826 34.8219C38.9744 37.4573 36.8434 39.5565 34.1832 39.8538C27.4715 40.604 20.5283 40.604 13.8166 39.8538C11.1564 39.5565 9.02545 37.4573 8.71722 34.8219C7.91522 27.9649 7.91522 21.0377 8.71722 14.1807C9.02545 11.5453 11.1564 9.44609 13.8166 9.14877C18.2417 8.6542 22.7727 8.48593 27.2668 8.64352C27.5913 8.6549 27.8675 8.40797 27.8902 8.08404L27.9885 6.678C27.9945 6.59522 28.0026 6.51332 28.0128 6.43235C28.0616 6.04356 27.792 5.66021 27.4004 5.64633C22.7493 5.48157 18.0654 5.65523 13.4834 6.16733C9.4593 6.61709 6.21064 9.78711 5.73753 13.8322C4.90845 20.9208 4.90845 28.0818 5.73753 35.1704C6.21064 39.2155 9.4593 42.3855 13.4834 42.8353C20.4166 43.6101 27.5832 43.6101 34.5164 42.8353C38.5405 42.3855 41.7892 39.2155 42.2623 35.1704C42.6002 32.2808 42.8004 29.3792 42.8629 26.4753C42.8707 26.1108 42.4236 25.9292 42.1677 26.1889C41.4874 26.8794 40.7833 27.546 40.0565 28.1876Z" fill="#70A4F9"/>
<path d="M15.7343 31.1009C15.2919 30.979 14.9892 30.5716 15.0002 30.1128L15.1187 25.185C15.2883 18.1291 21.057 12.4975 28.1149 12.4975L30.6298 12.4975C30.6823 11.25 30.754 10.0032 30.8448 8.75738L30.9805 6.89611C31.0633 5.76021 32.3299 5.12524 33.2896 5.73847C37.4315 8.38505 41.0322 11.7952 43.8999 15.7873L44.8121 17.0571C45.0625 17.4058 45.0625 17.8753 44.8121 18.224L43.8999 19.4939C41.0322 23.4859 37.4315 26.8961 33.2896 29.5426C32.4992 30.0477 31.4979 29.7062 31.1239 28.9355C31.0454 28.7719 30.9949 28.5831 30.9805 28.385L30.8448 26.5237C30.7365 25.038 30.6554 23.5507 30.6015 22.0627L29.8934 21.9562C25.3808 21.277 20.9176 23.4545 18.6755 27.4291L16.8709 30.6281C16.7849 30.7805 16.663 30.9035 16.5213 30.9902C16.2914 31.1305 16.0078 31.1762 15.7343 31.1009Z" fill="#70A4F9"/>
</svg>
