<svg width="48" height="48" viewBox="0 0 48 48" fill="none" xmlns="http://www.w3.org/2000/svg">
<path fill-rule="evenodd" clip-rule="evenodd" d="M14.5003 30.1014C14.4838 30.7896 14.9378 31.4007 15.6015 31.5836C16.2652 31.7664 16.9681 31.474 17.3064 30.8744L19.111 27.6754C21.2512 23.8815 25.5115 21.8029 29.8189 22.4512L30.1176 22.4962C30.1713 23.8519 30.2475 25.2069 30.3462 26.5607L30.4818 28.422C30.5922 29.9356 32.2799 30.7818 33.5588 29.9646C37.7541 27.2839 41.4013 23.8297 44.306 19.7862L45.2182 18.5163C45.5938 17.9934 45.5938 17.289 45.2182 16.7661L44.306 15.4962C41.4013 11.4527 37.7541 7.9985 33.5588 5.31778C32.2799 4.50061 30.5922 5.34675 30.4818 6.86039L30.3462 8.72166C30.2666 9.81312 30.2017 10.9054 30.1513 11.9981L28.1149 11.9981C20.7855 11.9981 14.795 17.8463 14.6188 25.1737L14.5003 30.1014ZM30.2654 19.4846C25.4268 18.7564 20.6344 20.7044 17.6658 24.4613C18.189 19.135 22.6784 14.9981 28.1149 14.9981L31.5923 14.9981C32.4008 14.9981 33.0638 14.3574 33.0915 13.5494C33.1441 12.0118 33.2263 10.475 33.3382 8.93977L33.3491 8.79086C36.636 11.1142 39.5165 13.971 41.8694 17.2465L42.153 17.6412L41.8694 18.0359C39.5165 21.3114 36.636 24.1682 33.3491 26.4915L33.3382 26.3426C33.2123 24.6149 33.1239 22.885 33.0731 21.1544C33.0518 20.4292 32.5144 19.8231 31.797 19.7151L30.2654 19.4846Z" fill="#ECEDED"/>
<path d="M39.2826 34.8226C39.5184 32.8059 39.6849 30.7833 39.7821 28.7581C39.7926 28.5388 39.892 28.3334 40.0565 28.1882C40.7833 27.5467 41.4874 26.88 42.1677 26.1895C42.4236 25.9298 42.8707 26.1114 42.8629 26.4759C42.8004 29.3798 42.6002 32.2815 42.2623 35.1711C41.7892 39.2161 38.5405 42.3862 34.5164 42.8359C27.5832 43.6108 20.4166 43.6108 13.4834 42.8359C9.4593 42.3862 6.21064 39.2161 5.73753 35.1711C4.90845 28.0825 4.90845 20.9214 5.73753 13.8328C6.21064 9.78775 9.4593 6.61773 13.4834 6.16797C18.0654 5.65587 22.7493 5.48221 27.4004 5.64698C27.792 5.66085 28.0616 6.04421 28.0128 6.43299C28.0026 6.51396 27.9945 6.59585 27.9885 6.67864L27.8859 8.08627C27.8623 8.40946 27.5865 8.65534 27.2626 8.64398C22.7685 8.48631 18.2422 8.65478 13.8166 9.14941C11.1564 9.44673 9.02545 11.546 8.71722 14.1813C7.91522 21.0384 7.91522 27.9655 8.71722 34.8226C9.02545 37.4579 11.1564 39.5572 13.8166 39.8545C20.5283 40.6046 27.4715 40.6046 34.1832 39.8545C36.8434 39.5572 38.9744 37.4579 39.2826 34.8226Z" fill="#ECEDED"/>
</svg>
