<svg 
    width="48" 
    height="48" 
    viewBox="0 0 48 48" 
    fill="none" 
    xmlns="http://www.w3.org/2000/svg">
    <path 
    d="M17.5 24C17.5 20.4102 20.4101 17.5 24 17.5C27.5899 17.5 30.5 20.4102 30.5 24C30.5 27.5899 27.5899 30.5 24 30.5C20.4101 30.5 17.5 27.5899 17.5 24Z" 
    fill="#70A4F9"/>
<path 
    fill-rule="evenodd" 
    clip-rule="evenodd" 
    d="M22.9214 3.67704C23.5111 3.06696 24.4889 3.06696 25.0786 3.67704L30.2232 9.00002H37.5C38.3284 9.00002 39 9.67159 39 10.5V17.7768L44.323 22.9214C44.9331 23.5111 44.9331 24.4889 44.323 25.0786L39 30.2232V37.5C39 38.3284 38.3284 39 37.5 39H30.2232L25.0786 44.323C24.4889 44.9331 23.5111 44.9331 22.9214 44.323L17.7768 39H10.5C9.67159 39 9.00002 38.3284 9.00002 37.5V30.2232L3.67704 25.0786C3.06696 24.4889 3.06696 23.5111 3.67704 22.9214L9.00002 17.7768V10.5C9.00002 9.67159 9.67159 9.00002 10.5 9.00002H17.7768L22.9214 3.67704ZM24 14.5C18.7533 14.5 14.5 18.7533 14.5 24C14.5 29.2467 18.7533 33.5 24 33.5C29.2467 33.5 33.5 29.2467 33.5 24C33.5 18.7533 29.2467 14.5 24 14.5Z" 
    fill="#70A4F9"/>
</svg>
