<svg
    width="39"
    height="48"
    viewBox="0 0 39 26"
    fill="none"
    xmlns="http://www.w3.org/2000/svg"
>
    <path
        fill-rule="evenodd"
        clip-rule="evenodd"
        d="M8.93277 0.627914C13.6383 0.207182 18.3736 0.243905 23.0721 0.737569L24.2875 0.865275C26.6074 1.10902 28.4745 2.86865 28.8628 5.15886L35.4196 1.67535C35.8639 1.43927 36.397 1.44171 36.8392 1.68183C37.2813 1.92194 37.5737 2.36776 37.6176 2.869L37.6674 3.43668C38.2253 9.80002 38.2253 16.2 37.6674 22.5633L37.6176 23.131C37.5737 23.6322 37.2813 24.0781 36.8392 24.3182C36.397 24.5583 35.8639 24.5607 35.4196 24.3247L28.8628 20.8411C28.4745 23.1314 26.6074 24.891 24.2875 25.1348L23.0721 25.2625C18.3736 25.7561 13.6383 25.7928 8.93276 25.3721L5.7692 25.0893C3.3854 24.8761 1.45935 23.055 1.11313 20.6869C0.367888 15.5894 0.367888 10.4106 1.11313 5.31315C1.45935 2.94502 3.3854 1.12391 5.7692 0.910774L8.93277 0.627914ZM29.2328 17.7332C29.3933 17.7584 29.5523 17.8103 29.7038 17.8908L34.8139 20.6057C35.1764 15.5417 35.1764 10.4583 34.8139 5.39427L29.7038 8.10918C29.5523 8.18966 29.3933 8.24156 29.2328 8.26677C29.5131 11.416 29.5131 14.584 29.2328 17.7332Z"
        fill="#70A4F9"
    />
</svg>