<svg 
    width="48" 
    height="48" 
    viewBox="0 0 48 48" 
    fill="none" 
    xmlns="http://www.w3.org/2000/svg">
<path 
    fill-rule="evenodd" 
    clip-rule="evenodd" 
    d="M28.1243 11.2403C23.3937 10.7433 18.626 10.7063 13.8882 11.1299L10.7247 11.4128C8.11037 11.6465 5.99809 13.6437 5.61839 16.2408C4.86613 21.3863 4.86613 26.6138 5.61839 31.7592C5.99809 34.3563 8.11038 36.3535 10.7247 36.5873L13.8882 36.8701C18.626 37.2937 23.3937 37.2568 28.1243 36.7597L29.3398 36.632C31.828 36.3706 33.8411 34.5184 34.3259 32.0871L40.4196 35.3247C40.8639 35.5607 41.397 35.5583 41.8392 35.3182C42.2813 35.0781 42.5737 34.6323 42.6176 34.131L42.6674 33.5633C43.2253 27.2 43.2253 20.8 42.6674 14.4367L42.6176 13.869C42.5737 13.3678 42.2813 12.922 41.8392 12.6818C41.397 12.4417 40.8639 12.4393 40.4196 12.6754L34.3259 15.9129C33.8411 13.4816 31.828 11.6294 29.3398 11.368L28.1243 11.2403ZM14.1554 14.118C18.6999 13.7116 23.2732 13.7471 27.8108 14.2239L29.0263 14.3516C30.2495 14.4801 31.2299 15.4216 31.4078 16.6386C32.1215 21.5203 32.1215 26.4798 31.4078 31.3615C31.2299 32.5784 30.2495 33.5199 29.0263 33.6484L27.8108 33.7761C23.2732 34.2529 18.6999 34.2884 14.1554 33.882L10.9918 33.5992C9.76053 33.4891 8.76567 32.5484 8.58684 31.3252C7.87665 26.4676 7.87665 21.5325 8.58684 16.6748C8.76567 15.4516 9.76053 14.5109 10.9918 14.4008L14.1554 14.118ZM34.7199 19.1007C35.0174 22.3601 35.0174 25.6399 34.7199 28.8994L39.8139 31.6057C40.1764 26.5417 40.1764 21.4583 39.8139 16.3943L34.7199 19.1007Z" 
    fill="#FDFFFF" 
    fill-opacity="0.7"/>
</svg>
