<svg width="48" height="48" viewBox="0 0 48 48" fill="none" xmlns="http://www.w3.org/2000/svg">
<path fill-rule="evenodd" clip-rule="evenodd" d="M24.2774 9.1496C26.3825 7.3954 29.5945 8.66293 29.9344 11.3819C30.9818 19.7614 30.9818 28.2387 29.9344 36.6181C29.5945 39.3371 26.3825 40.6046 24.2774 38.8504L15.596 31.6159C15.5061 31.541 15.3929 31.5 15.2759 31.5H8C6.067 31.5 4.5 29.933 4.5 28V20C4.5 18.067 6.067 16.5 8 16.5H15.2759C15.3929 16.5 15.5061 16.459 15.596 16.3841L24.2774 9.1496ZM26.9576 11.754C26.9119 11.3889 26.4806 11.2187 26.198 11.4543L17.5165 18.6888C16.8875 19.213 16.0947 19.5 15.2759 19.5H8C7.72386 19.5 7.5 19.7239 7.5 20V28C7.5 28.2762 7.72386 28.5 8 28.5H15.2759C16.0947 28.5 16.8875 28.7871 17.5165 29.3113L26.198 36.5458C26.4806 36.7813 26.9119 36.6111 26.9576 36.246C27.9741 28.1137 27.9741 19.8864 26.9576 11.754Z" fill="#FF3F4C"/>
<path d="M34.4038 19.4038C34.9896 18.818 35.9394 18.818 36.5251 19.4038L39 21.8787L41.4749 19.4038C42.0607 18.818 43.0104 18.818 43.5962 19.4038C44.182 19.9896 44.182 20.9394 43.5962 21.5251L41.1213 24L43.5962 26.4749C44.182 27.0607 44.182 28.0104 43.5962 28.5962C43.0104 29.182 42.0607 29.182 41.4749 28.5962L39 26.1213L36.5251 28.5962C35.9393 29.182 34.9896 29.182 34.4038 28.5962C33.818 28.0104 33.818 27.0607 34.4038 26.4749L36.8787 24L34.4038 21.5252C33.818 20.9394 33.818 19.9896 34.4038 19.4038Z" fill="#FF3F4C"/>
</svg>
