<svg width="48" height="48" viewBox="0 0 48 48" fill="none" xmlns="http://www.w3.org/2000/svg">
<path fill-rule="evenodd" clip-rule="evenodd" d="M24.2774 9.14957C26.3825 7.39537 29.5945 8.6629 29.9344 11.3819C30.9818 19.7614 30.9818 28.2386 29.9344 36.6181C29.5945 39.3371 26.3825 40.6046 24.2774 38.8504L15.596 31.6159C15.5061 31.541 15.3929 31.5 15.2759 31.5H8C6.067 31.5 4.5 29.933 4.5 28V20C4.5 18.067 6.067 16.5 8 16.5H15.2759C15.3929 16.5 15.5061 16.459 15.596 16.3841L24.2774 9.14957ZM26.9576 11.754C26.9119 11.3889 26.4806 11.2187 26.198 11.4542L17.5165 18.6888C16.8875 19.2129 16.0947 19.5 15.2759 19.5H8C7.72386 19.5 7.5 19.7239 7.5 20V28C7.5 28.2761 7.72386 28.5 8 28.5H15.2759C16.0947 28.5 16.8875 28.7871 17.5165 29.3112L26.198 36.5458C26.4806 36.7813 26.9119 36.6111 26.9576 36.246C27.9741 28.1136 27.9741 19.8863 26.9576 11.754Z" fill="#FDFFFF"/>
<path d="M39.8163 11.8915C40.6028 11.6314 41.4513 12.0581 41.7115 12.8447C42.8723 16.3546 43.5 20.1055 43.5 24C43.5 27.8945 42.8723 31.6454 41.7115 35.1554C41.4513 35.9419 40.6028 36.3686 39.8163 36.1085C39.0298 35.8484 38.6031 34.9999 38.8632 34.2133C39.9248 31.0035 40.5 27.5704 40.5 24C40.5 20.4296 39.9248 16.9965 38.8632 13.7867C38.6031 13.0002 39.0298 12.1517 39.8163 11.8915Z" fill="#FDFFFF"/>
<path d="M36.0646 15.8954C35.7789 15.1178 34.9169 14.719 34.1393 15.0047C33.3617 15.2904 32.9629 16.1524 33.2486 16.93C34.0576 19.1319 34.5 21.5126 34.5 24C34.5 26.0632 34.1956 28.0527 33.6304 29.9273C33.5989 30.0318 33.5666 30.1359 33.5335 30.2396C33.4444 30.5191 33.3493 30.7959 33.2486 31.07C32.9629 31.8476 33.3617 32.7096 34.1393 32.9953C34.9169 33.281 35.7789 32.8822 36.0646 32.1046C36.1801 31.7901 36.2892 31.4724 36.3915 31.1517C36.4295 31.0326 36.4666 30.9132 36.5027 30.7933C37.1517 28.6409 37.5 26.3598 37.5 24C37.5 21.1544 36.9935 18.4237 36.0646 15.8954Z" fill="#FDFFFF"/>
</svg>
